<?xml version="1.0" encoding="iso-8859-1"?>
<!-- Generator: Adobe Illustrator 19.0.0, SVG Export Plug-In . SVG Version: 6.00 Build 0)  -->
<svg version="1.1" id="Capa_1" xmlns="http://www.w3.org/2000/svg" xmlns:xlink="http://www.w3.org/1999/xlink" x="0px" y="0px"
	 viewBox="0 0 512 512" style="enable-background:new 0 0 512 512;" xml:space="preserve">
<g>
	<g>
		<g>
			<path d="M256,0C114.615,0,0,114.615,0,256s114.615,256,256,256s256-114.615,256-256S397.385,0,256,0z M256,480
				C132.288,480,32,379.712,32,256S132.288,32,256,32s224,100.288,224,224S379.712,480,256,480z"/>
			<path d="M315.36,100.64l-22.72,22.72l36.8,36.64H160c-17.673,0-32,14.327-32,32v48h32v-48h169.44l-36.64,36.64l22.56,22.56l64-64
				c6.204-6.241,6.204-16.319,0-22.56L315.36,100.64z"/>
			<path d="M352,320H182.56l36.64-36.64l-22.56-22.56l-64,64c-6.204,6.241-6.204,16.319,0,22.56l64,64l22.56-22.56L182.56,352H352
				c17.673,0,32-14.327,32-32v-48h-32V320z"/>
		</g>
	</g>
</g>
<g>
</g>
<g>
</g>
<g>
</g>
<g>
</g>
<g>
</g>
<g>
</g>
<g>
</g>
<g>
</g>
<g>
</g>
<g>
</g>
<g>
</g>
<g>
</g>
<g>
</g>
<g>
</g>
<g>
</g>
</svg>
