<svg width="14" height="11" viewBox="0 0 14 11" fill="none" xmlns="http://www.w3.org/2000/svg">
<path d="M9.98391 6.96126C9.86846 6.93009 9.77949 6.90789 9.69158 6.88253C8.35597 6.49156 7.43503 5.24149 7.46892 3.86568C7.50493 2.42066 8.46983 1.20916 9.84622 0.876832C11.7464 0.418757 13.3806 1.7169 13.6788 3.42874C13.8366 4.3338 13.6995 5.22829 13.4437 6.09794C12.8299 8.18596 11.4175 9.4915 9.37436 10.1646C9.11328 10.2507 8.86967 10.2502 8.65307 10.0653C8.36762 9.82172 8.35544 9.42599 8.59217 9.11638C8.91627 8.69265 9.23773 8.26574 9.5327 7.8214C9.708 7.55776 9.83086 7.25872 9.98391 6.96126Z" fill="#7E756D"/>
<path d="M2.84772 6.98525C2.56545 6.8817 2.32343 6.81196 2.09783 6.70682C0.872376 6.13884 0.177035 4.83383 0.359211 3.4633C0.530266 2.17625 1.56242 1.09737 2.84348 0.846408C4.75421 0.472339 6.37049 1.83758 6.54579 3.52406C6.81905 6.15364 5.63491 8.91847 2.56863 10.0507C2.42935 10.102 2.28795 10.149 2.14549 10.1918C1.8521 10.28 1.56295 10.1786 1.39666 9.93342C1.22931 9.68721 1.24679 9.38975 1.43638 9.14355C1.69746 8.8054 1.97549 8.47783 2.20851 8.1212C2.44523 7.75875 2.63588 7.36619 2.84772 6.98525Z" fill="#7E756D"/>
</svg>
